<svg width="81" height="81" viewBox="0 0 81 81" fill="none" xmlns="http://www.w3.org/2000/svg">
<g id="undraw_on_the_way_re_swjt 1">
<path id="Vector_6" d="M74.179 17H6.82101C5.92501 17 5.03799 17.139 4.20999 17.41C3.38299 17.681 2.63101 18.078 1.99701 18.578C1.36401 19.079 0.861012 19.673 0.519012 20.327C0.176012 20.981 0 21.682 0 22.389V75.611C0 76.318 0.176012 77.019 0.519012 77.673C0.861012 78.327 1.36401 78.921 1.99701 79.422C2.63101 79.922 3.38299 80.319 4.20999 80.59C5.03799 80.861 5.92501 81 6.82101 81H74.179C75.075 81 75.962 80.861 76.789 80.59C77.617 80.319 78.369 79.922 79.003 79.422C79.636 78.921 80.138 78.327 80.481 77.673C80.824 77.019 81 76.318 81 75.611V22.389C81 21.682 80.824 20.981 80.481 20.327C80.138 19.673 79.636 19.079 79.003 18.578C78.369 18.078 77.617 17.681 76.789 17.41C75.962 17.139 75.075 17 74.179 17Z" fill="#CCCCCC"/>
<path id="Vector_7" d="M80.51 7.608V16.505H0.0100098V7.608C0.0100098 6.718 0.184994 5.836 0.524994 5.013C0.865994 4.191 1.365 3.444 1.995 2.814C2.624 2.184 3.372 1.685 4.194 1.345C5.017 1.004 5.898 0.829002 6.789 0.829002H73.731C74.621 0.829002 75.503 1.004 76.325 1.345C77.148 1.685 77.895 2.184 78.525 2.814C79.154 3.444 79.654 4.191 79.994 5.013C80.335 5.836 80.51 6.718 80.51 7.608Z" fill="#B3B3B3"/>
</g>
</svg>
